<svg id="Capa_1" enable-background="new 0 0 496.856 496.856" height="512" viewBox="0 0 496.856 496.856" width="512" xmlns="http://www.w3.org/2000/svg"><g><path d="m356.026 43.005v417.958c0 16.693-13.532 30.225-30.225 30.225h-295.576c-16.693 0-30.225-13.532-30.225-30.225v-417.968c0-16.693 13.532-30.225 30.225-30.225h295.565c16.699-.001 30.236 13.536 30.236 30.235z" fill="#eaf6ff"/><path d="m356.03 43.003v417.96c0 16.69-13.54 30.22-30.23 30.22h-31.23c16.69 0 30.22-13.53 30.22-30.22v-417.96c0-16.7-13.54-30.23-30.24-30.23h31.24c16.7 0 30.24 13.53 30.24 30.23z" fill="#c8effe"/><path d="m260.429 60.041v25.99c0 3.121-2.53 5.651-5.651 5.651h-155.118c-3.121 0-5.651-2.53-5.651-5.651v-25.99c0-3.121 2.53-5.651 5.651-5.651h155.117c3.122 0 5.652 2.53 5.652 5.651z" fill="#7ca1b1"/><g><path d="m431.159 225.994c-1.264.147-2.582-.026-3.834-.566-3.803-1.642-5.555-6.056-3.912-9.859l54.654-126.576c.791-1.831-.053-3.956-1.884-4.746l-15.278-6.597c-3.771-1.628-5.805-5.954-4.291-9.772 1.566-3.95 6.072-5.797 9.946-4.124l25.633 11.068c.956.413 1.853.978 2.569 1.734 2.155 2.276 2.643 5.489 1.479 8.183l-59.058 136.777c-1.101 2.55-3.45 4.178-6.024 4.478z" fill="#7ca1b1"/></g><path d="m260.43 60.043v25.99c0 3.12-2.53 5.65-5.65 5.65h-31.86c3.12 0 5.65-2.53 5.65-5.65v-25.99c0-3.12-2.53-5.65-5.65-5.65h31.86c3.12 0 5.65 2.53 5.65 5.65z" fill="#678d98"/><path d="m396.861 225.173-86.446 200.204-32.213-4.816-32.204-22.998 86.436-200.209 35.066.892z" fill="#5986cb"/><path d="m396.86 225.173-86.44 200.2-25.59-11.04-2.932 6.781 93.221-215.881z" fill="#4278c3"/><path d="m466.466 26.215c.455 3.904-.077 7.982-1.749 11.862l-9.054 20.969-24.163-4.653-18.463-13.748 9.063-20.98c3.973-9.191 13.17-14.502 22.606-13.96 2.643.135 5.322.749 7.898 1.858 7.897 3.41 12.932 10.676 13.862 18.652z" fill="#99e6fc"/><path d="m464.72 38.073-9.06 20.97-15.831-3.697 10.201-23.613c1.68-3.87 2.21-7.95 1.75-11.86-.62-5.36-3.1-10.4-7.07-14.17 2.64.14 5.32.75 7.89 1.86 7.9 3.41 12.94 10.68 13.87 18.65.45 3.91-.08 7.98-1.75 11.86z" fill="#62dbfb"/><path d="m466.559 63.754-69.699 161.419-64.426-27.818 66.688-154.423c1.668-3.861 6.15-5.64 10.011-3.973z" fill="#80b4fb"/><path d="m466.56 63.753-69.7 161.42-25.58-11.05 69.69-161.42z" fill="#61a2f9"/><path d="m284.83 414.323v.01l-38.83-16.77z" fill="#5986cb"/><path d="m310.414 425.378-48.42 45.5c-6.025 5.665-15.905 1.4-15.911-6.865l-.014-13.257-.077-53.199 38.843 16.777z" fill="#99e6fc"/><path d="m310.41 425.373-48.42 45.5c-6.02 5.67-15.9 1.4-15.91-6.86l-.01-13.26 38.76-36.42z" fill="#62dbfb"/><g><path d="m299.62 145.185h-244.705c-4.142 0-7.5-3.357-7.5-7.5s3.358-7.5 7.5-7.5h244.705c4.143 0 7.5 3.357 7.5 7.5s-3.357 7.5-7.5 7.5z" fill="#7ca1b1"/></g><g><path d="m299.62 192.375h-244.705c-4.142 0-7.5-3.357-7.5-7.5s3.358-7.5 7.5-7.5h244.705c4.143 0 7.5 3.357 7.5 7.5s-3.357 7.5-7.5 7.5z" fill="#7ca1b1"/></g><g><path d="m238.638 239.564h-183.723c-4.142 0-7.5-3.357-7.5-7.5s3.358-7.5 7.5-7.5h183.723c4.142 0 7.5 3.357 7.5 7.5s-3.358 7.5-7.5 7.5z" fill="#7ca1b1"/></g><g><path d="m128.419 286.753h-73.504c-4.142 0-7.5-3.357-7.5-7.5s3.358-7.5 7.5-7.5h73.504c4.142 0 7.5 3.357 7.5 7.5s-3.357 7.5-7.5 7.5z" fill="#7ca1b1"/></g><g><path d="m132.724 432.935c-.89 0-1.796-.026-2.72-.08-11.872-.692-18.839-6.871-24.986-12.322-5.767-5.114-10.322-9.153-18.913-9.606-16.527-.857-24.709 13.547-25.05 14.16-1.997 3.607-6.543 4.947-10.165 2.972-3.62-1.976-4.978-6.48-3.026-10.112.513-.956 12.85-23.367 39.03-21.998 13.829.729 21.729 7.733 28.076 13.362 5.356 4.749 9.226 8.181 15.907 8.57 17.763 1.052 26.227-13.86 26.31-14.011 2.008-3.624 6.572-4.933 10.195-2.926 3.623 2.008 4.933 6.572 2.926 10.195-.508.919-12.375 21.795-37.584 21.796z" fill="#80b4fb"/></g></g></svg>