<svg enable-background="new 0 0 256 256" height="512" viewBox="0 0 256 256" width="512" xmlns="http://www.w3.org/2000/svg"><g id="Layer_48"><g><g><g><path d="m202.01 59.394-32.806-32.806h-120.216c-4.28 0-7.75 3.47-7.75 7.75v211.412c0 4.28 3.47 7.75 7.75 7.75h145.272c4.28 0 7.75-3.47 7.75-7.75v-83.549l-13.156 32.675-18.947-7.628c6.569-16.316 25.535-63.422 32.103-79.734z" fill="#dae6f1"/></g></g><g><g><path d="m232.169 71.949-8.312-3.347c-1.671-.673-3.58.037-4.406 1.638l-9.175 16.747 18.947 7.629 4.989-18.432c.513-1.727-.372-3.562-2.043-4.235z" fill="#6cadef"/></g></g><g><g><path d="m177.668 109.01h61.275v20.425h-61.275z" fill="#f5c84c" transform="matrix(.374 -.928 .928 .374 19.912 267.926)"/></g></g><g><g><path d="m169.908 187.248-1.535 25.13c-.139 2.276 2.699 3.419 4.176 1.681l16.306-19.183z" fill="#dae6f1"/></g></g><g><g><path d="m169.142 199.784-.769 12.594c-.139 2.276 2.699 3.419 4.176 1.682l8.172-9.614z" fill="#6cadef"/></g></g><g><g><path d="m164.718 159.14h46.807v20.425h-46.807z" fill="#fcdd86" transform="matrix(.374 -.928 .928 .374 -39.236 280.61)"/></g></g><g><g><path d="m176.954 59.394c-4.28 0-7.75-3.47-7.75-7.75v-8.775h-110.237c-1.362 0-2.466 1.104-2.466 2.466v21.525c0 1.362 1.104 2.466 2.466 2.466h125.314c1.362 0 2.466-1.104 2.466-2.466v-7.465h-9.793z" fill="#fc657e"/></g></g><g><g><path d="m169.205 26.588v25.056c0 4.28 3.47 7.75 7.75 7.75h25.056z" fill="#edf4fc"/></g></g><g><g><path d="m202.011 109.797c1.381 0 2.5-1.119 2.5-2.5v-47.903c0-.663-.264-1.299-.732-1.768l-32.807-32.806c-.469-.469-1.104-.732-1.768-.732h-120.216c-5.652 0-10.25 4.598-10.25 10.25v211.412c0 5.651 4.598 10.25 10.25 10.25h145.272c5.652 0 10.25-4.598 10.25-10.25v-83.292c0-1.381-1.119-2.5-2.5-2.5s-2.5 1.119-2.5 2.5v83.292c0 2.895-2.355 5.25-5.25 5.25h-145.272c-2.895 0-5.25-2.355-5.25-5.25v-211.413c0-2.895 2.355-5.25 5.25-5.25h119.181l31.342 31.341v46.868c0 1.382 1.119 2.501 2.5 2.501z"/></g></g><g><g><path d="m144.354 81.197h-45.458c-1.381 0-2.5 1.119-2.5 2.5s1.119 2.5 2.5 2.5h45.458c1.381 0 2.5-1.119 2.5-2.5s-1.12-2.5-2.5-2.5z"/></g></g><g><g><path d="m180.512 93.946h-117.775c-1.381 0-2.5 1.119-2.5 2.5s1.119 2.5 2.5 2.5h117.775c1.381 0 2.5-1.119 2.5-2.5s-1.119-2.5-2.5-2.5z"/></g></g><g><g><path d="m180.512 106.694h-117.775c-1.381 0-2.5 1.119-2.5 2.5s1.119 2.5 2.5 2.5h117.775c1.381 0 2.5-1.119 2.5-2.5s-1.119-2.5-2.5-2.5z"/></g></g><g><g><path d="m158.068 119.443h-46c-1.381 0-2.5 1.119-2.5 2.5s1.119 2.5 2.5 2.5h46c1.381 0 2.5-1.119 2.5-2.5s-1.119-2.5-2.5-2.5z"/></g></g><g><g><path d="m158.068 132.192h-46c-1.381 0-2.5 1.119-2.5 2.5s1.119 2.5 2.5 2.5h46c1.381 0 2.5-1.119 2.5-2.5s-1.119-2.5-2.5-2.5z"/></g></g><g><g><path d="m158.068 144.94h-46c-1.381 0-2.5 1.119-2.5 2.5s1.119 2.5 2.5 2.5h46c1.381 0 2.5-1.119 2.5-2.5s-1.119-2.5-2.5-2.5z"/></g></g><g><g><path d="m100.068 119.443h-14.887c-1.381 0-2.5 1.119-2.5 2.5s1.119 2.5 2.5 2.5h14.887c1.381 0 2.5-1.119 2.5-2.5s-1.119-2.5-2.5-2.5z"/></g></g><g><g><path d="m100.068 132.192h-14.887c-1.381 0-2.5 1.119-2.5 2.5s1.119 2.5 2.5 2.5h14.887c1.381 0 2.5-1.119 2.5-2.5s-1.119-2.5-2.5-2.5z"/></g></g><g><g><path d="m100.068 144.94h-14.887c-1.381 0-2.5 1.119-2.5 2.5s1.119 2.5 2.5 2.5h14.887c1.381 0 2.5-1.119 2.5-2.5s-1.119-2.5-2.5-2.5z"/></g></g><g><g><path d="m180.512 157.689h-117.775c-1.381 0-2.5 1.119-2.5 2.5s1.119 2.5 2.5 2.5h117.775c1.381 0 2.5-1.119 2.5-2.5s-1.119-2.5-2.5-2.5z"/></g></g><g><g><path d="m175.512 170.438h-112.775c-1.381 0-2.5 1.119-2.5 2.5s1.119 2.5 2.5 2.5h112.775c1.381 0 2.5-1.119 2.5-2.5s-1.119-2.5-2.5-2.5z"/></g></g><g><g><path d="m178.124 227h-40c-1.381 0-2.5 1.119-2.5 2.5s1.119 2.5 2.5 2.5h40c1.381 0 2.5-1.119 2.5-2.5s-1.119-2.5-2.5-2.5z"/></g></g><g><g><path d="m105.125 227h-40c-1.381 0-2.5 1.119-2.5 2.5s1.119 2.5 2.5 2.5h40c1.381 0 2.5-1.119 2.5-2.5s-1.12-2.5-2.5-2.5z"/></g></g><g><g><path d="m107.361 208.382c-.618-1.235-2.12-1.734-3.354-1.118l-6.57 3.285c-.082.04-.179.034-.256-.016l-7.844-5.229c-1.324-.882-2.955-1.118-4.474-.646-1.52.472-2.73 1.589-3.321 3.067-.028.069-.072.172-.243.16-.177-.004-.211-.101-.235-.171l-2.975-8.552c-.746-2.144-2.694-3.529-4.964-3.529s-4.218 1.385-4.964 3.529l-5.397 15.517c-.454 1.304.236 2.729 1.54 3.183.272.095.549.139.821.139 1.035 0 2.002-.647 2.361-1.679l5.397-15.517c.025-.072.06-.172.241-.172.182 0 .217.1.242.172l2.975 8.552c.728 2.092 2.629 3.477 4.844 3.528 2.198.038 4.177-1.246 5-3.302.011-.028.045-.114.162-.15s.193.015.218.031l7.843 5.229c1.563 1.044 3.581 1.169 5.266.329l6.57-3.285c1.234-.618 1.734-2.12 1.117-3.355z"/></g></g><g><g><path d="m169.505 210.083-7.168-4.779c-1.324-.882-2.953-1.117-4.475-.646-1.52.473-2.73 1.59-3.32 3.067-.028.069-.069.172-.243.161-.177-.004-.211-.101-.235-.171l-2.976-8.552c-.745-2.144-2.692-3.529-4.963-3.53 0 0 0 0-.001 0-2.27 0-4.218 1.385-4.964 3.529l-5.397 15.517c-.453 1.304.236 2.729 1.54 3.183.271.094.549.139.821.139 1.034 0 2.002-.647 2.361-1.679l5.397-15.517c.025-.072.06-.172.241-.172s.216.099.241.172l2.976 8.552c.728 2.092 2.628 3.477 4.843 3.528 2.197.038 4.178-1.245 5.001-3.303.012-.028.045-.112.161-.148.119-.037.193.016.218.031l7.168 4.779c1.147.765 2.701.455 3.467-.693.766-1.151.455-2.702-.693-3.468z"/></g></g><g><g><path d="m233.103 69.63-8.313-3.346c-2.887-1.163-6.136.045-7.532 2.756l-9.175 16.747c-.663 1.211-.22 2.73.991 3.394 1.208.663 2.73.22 3.394-.991l9.204-16.802c.236-.457.774-.657 1.251-.465l8.313 3.346c.477.192.727.709.563 1.262l-4.989 18.432c-.36 1.333.427 2.706 1.76 3.066.219.059.438.087.655.087 1.101 0 2.109-.733 2.411-1.847l4.973-18.373c.885-2.98-.622-6.104-3.506-7.266z"/></g></g><g><g><path d="m236.042 84.575-23.769-9.57c-1.281-.517-2.737.104-3.253 1.385s.104 2.737 1.386 3.252l23.769 9.57c2.814 1.133 4.182 4.345 3.049 7.159l-15.175 37.688c-.488-.074-1.007-.003-1.484.235-1.235.616-1.738 2.117-1.122 3.353l1.145 2.296c.424.851 1.292 1.385 2.237 1.385.033 0 .066 0 .1-.002.983-.039 1.852-.651 2.22-1.564l16.719-41.523c2.16-5.371-.45-11.501-5.822-13.664z"/></g></g><g><g><g><path d="m230.155 92.297-18.946-7.628c-.614-.248-1.303-.241-1.913.019s-1.092.751-1.34 1.367l-22.886 56.841c-.247.615-.24 1.303.02 1.913s.751 1.092 1.366 1.34l18.947 7.628c.3.121.616.181.934.181.333 0 .667-.067.979-.2.61-.26 1.092-.751 1.34-1.367l22.885-56.841c.516-1.281-.104-2.737-1.386-3.253zm-25.204 55.907-14.309-5.761 21.019-52.203 14.308 5.761z"/></g></g></g><g><g><path d="m224.581 201.2c-3.1-.6-5.6-3-6.2-6.1 0-.1-.3-.1-.3 0-.6 3.1-3.1 5.5-6.2 6.1-.1 0-.1.2 0 .3 3.1.6 5.6 3 6.2 6.1 0 .1.3.1.3 0 .6-3.1 3.1-5.5 6.2-6.1.1-.1.1-.3 0-.3z" fill="#70d6f9"/></g></g><g><g><path d="m23.681 99.5h-2.4v-2.3c0-1.8-1.4-3.2-3.2-3.2-1.7 0-3.2 1.4-3.2 3.1v2.4h-2.3c-1.8 0-3.2 1.4-3.2 3.2-.1 1.7 1.3 3.2 3.2 3.2h2.3v2.3c0 1.8 1.4 3.2 3.2 3.2 1.7 0 3.2-1.4 3.2-3.1v-2.4h2.3c1.8 0 3.2-1.4 3.2-3.2 0-1.7-1.4-3.2-3.1-3.2z" fill="#fc657e"/></g></g><g><g><path d="m167.981 0c-1.878 0-3.4 1.522-3.4 3.4s1.522 3.4 3.4 3.4 3.4-1.522 3.4-3.4-1.522-3.4-3.4-3.4z" fill="#87d147"/></g></g><g><g><path d="m24.981 131c-1.878 0-3.4 1.522-3.4 3.4s1.522 3.4 3.4 3.4 3.4-1.522 3.4-3.4-1.522-3.4-3.4-3.4z" fill="#f5c84c"/></g></g><g><g><path d="m207.581 23.2c-4.5-.8-8-4.3-8.9-8.7 0-.2-.4-.2-.4 0-.9 4.4-4.4 7.9-8.9 8.7-.2 0-.2.3 0 .4 4.5.8 8 4.3 8.9 8.7 0 .2.4.2.4 0 .9-4.4 4.4-7.9 8.9-8.7.2-.1.2-.4 0-.4z" fill="#f5c84c"/></g></g><g><g><path d="m190.474 192.972c-1.053-.895-2.629-.766-3.524.286l-16.059 18.892 1.512-24.749c.084-1.378-.965-2.563-2.343-2.647-1.389-.098-2.563.965-2.647 2.343l-1.535 25.13c-.13 2.129 1.064 4.02 3.044 4.817.608.245 1.235.364 1.853.364 1.388 0 2.723-.603 3.681-1.729l16.306-19.183c.891-1.052.763-2.63-.288-3.524z"/></g></g><g><g><path d="m180.912 201.828-10.075-4.056c-1.279-.515-2.737.105-3.253 1.386s.104 2.737 1.386 3.253l10.075 4.056c.306.123.622.181.933.181.99 0 1.928-.592 2.32-1.567.515-1.281-.105-2.738-1.386-3.253z"/></g></g><g><g><path d="m207.271 149.138c-1.281-.517-2.737.104-3.253 1.385l-16.549 41.101-14.309-5.761 16.549-41.102c.516-1.281-.104-2.737-1.386-3.252-1.281-.517-2.737.104-3.253 1.385l-17.482 43.42c-.247.615-.24 1.303.02 1.913s.751 1.092 1.366 1.339l18.947 7.629c.306.123.622.181.933.181.99 0 1.928-.592 2.32-1.567l17.482-43.42c.516-1.28-.104-2.736-1.385-3.251z"/></g></g><g><g><path d="m186.747 57.656c-1.381 0-2.5 1.119-2.5 2.5l.034 6.669-125.28.034-.034-21.49h109.491c1.381 0 2.5-1.119 2.5-2.5s-1.119-2.5-2.5-2.5h-109.491c-2.738 0-4.966 2.228-4.966 4.965v21.525c0 2.738 2.228 4.966 4.966 4.966h125.314c2.738 0 4.966-2.228 4.966-4.966v-6.703c0-1.381-1.119-2.5-2.5-2.5z"/></g></g><g><g><path d="m200.75 56.894h-23.796c-2.895 0-5.25-2.355-5.25-5.25v-24.269c0-1.381-1.119-2.5-2.5-2.5s-2.5 1.119-2.5 2.5v24.268c0 5.652 4.598 10.25 10.25 10.25h23.796c1.381 0 2.5-1.119 2.5-2.5s-1.119-2.499-2.5-2.499z"/></g></g></g></g></svg>