<svg id="Capa_1" enable-background="new 0 0 512 512" height="512" viewBox="0 0 512 512" width="512" xmlns="http://www.w3.org/2000/svg"><g><g><path clip-rule="evenodd" d="m387.4 82.556h-220.382c-2.858 0-5.221-2.333-5.221-5.221v-32.609c0-2.888 2.363-5.221 5.221-5.221h220.382c2.858 0 5.221 2.363 5.221 5.221v32.609c0 2.888-2.362 5.221-5.221 5.221zm46.579-82.252h-302.282c-5.017 0-9.1 4.083-9.1 9.1v493.162c0 4.988 4.054 9.071 9.042 9.129h.058 371.203.058c4.871-.058 8.896-3.967 9.042-8.838v-420.622h-68.892c-5.017 0-9.129-4.083-9.129-9.1zm-272.182 132.595c0-3.733 3.063-6.767 6.767-6.767h297.441c3.733 0 6.796 3.033 6.796 6.767v242.702c0 3.733-3.063 6.767-6.796 6.767h-297.442c-3.704 0-6.767-3.033-6.767-6.767v-242.702z" fill="#f9f7f8" fill-rule="evenodd"/></g><g><path clip-rule="evenodd" d="m387.4 39.505h-220.382c-2.858 0-5.221 2.333-5.221 5.221v32.609c0 2.888 2.363 5.221 5.221 5.221h220.382c2.858 0 5.221-2.333 5.221-5.221v-32.609c0-2.858-2.362-5.221-5.221-5.221z" fill="#eb5468" fill-rule="evenodd"/></g><g><path clip-rule="evenodd" d="m466.004 126.132h-297.441c-3.704 0-6.767 3.033-6.767 6.767v242.702c0 3.733 3.063 6.767 6.767 6.767h297.441c3.733 0 6.796-3.033 6.796-6.767v-242.702c0-3.733-3.062-6.767-6.796-6.767zm-254.712 83.652h44.45 44.479v-44.451h44.45v44.451h44.45v-44.451h44.479v44.451 44.48 44.451h-44.479v-44.451h-44.45v44.451h-44.45v-44.451h-44.479v44.451 44.451h-44.45v-44.451-44.451z" fill="#a1d4ff" fill-rule="evenodd"/></g><g><path clip-rule="evenodd" d="m211.292 298.716h44.45v44.451h-44.45z" fill="#f9f7f8" fill-rule="evenodd"/></g><g><path clip-rule="evenodd" d="m211.292 254.265h44.45v44.451h-44.45z" fill="#f9f7f8" fill-rule="evenodd"/></g><g><path clip-rule="evenodd" d="m211.292 209.784h44.45v44.48h-44.45z" fill="#ffe07d" fill-rule="evenodd"/></g><g><path clip-rule="evenodd" d="m255.742 209.784h44.479v44.48h-44.479z" fill="#f9f7f8" fill-rule="evenodd"/></g><g><path clip-rule="evenodd" d="m300.221 209.784h44.45v44.48h-44.45z" fill="#f9f7f8" fill-rule="evenodd"/></g><g><path clip-rule="evenodd" d="m300.221 165.333h44.45v44.451h-44.45z" fill="#f9f7f8" fill-rule="evenodd"/></g><g><path clip-rule="evenodd" d="m300.221 254.265h44.45v44.451h-44.45z" fill="#f9f7f8" fill-rule="evenodd"/></g><g><path clip-rule="evenodd" d="m344.671 209.784h44.45v44.48h-44.45z" fill="#f9f7f8" fill-rule="evenodd"/></g><g><path clip-rule="evenodd" d="m389.121 209.784h44.479v44.48h-44.479z" fill="#f9f7f8" fill-rule="evenodd"/></g><g><path clip-rule="evenodd" d="m389.121 254.265h44.479v44.451h-44.479z" fill="#f9f7f8" fill-rule="evenodd"/></g><g><path clip-rule="evenodd" d="m389.121 165.333h44.479v44.451h-44.479z" fill="#ffd064" fill-rule="evenodd"/></g><g><path clip-rule="evenodd" d="m512 82.235-78.021-81.931v72.831c0 5.017 4.112 9.1 9.129 9.1z" fill="#a1d4ff" fill-rule="evenodd"/></g><g><path clip-rule="evenodd" d="m329.505 39.505c7.321 13.096 14 27.505 19.892 43.051h38.003c2.858 0 5.221-2.333 5.221-5.221v-32.609c0-2.858-2.362-5.221-5.221-5.221z" fill="#e5384f" fill-rule="evenodd"/></g><g><path clip-rule="evenodd" d="m363.105 126.132h102.9c3.733 0 6.796 3.033 6.796 6.767v242.702c0 3.733-3.063 6.767-6.796 6.767h-102.025c-13.387 54.018-35.087 99.111-61.95 129.328h200.87.058c4.871-.058 8.896-3.967 9.042-8.838v-420.623h-68.892c-5.017 0-9.129-4.083-9.129-9.1v-72.831h-131.949c9.917 11.142 19.133 24.296 27.475 39.201h57.895c2.858 0 5.221 2.363 5.221 5.221v32.609c0 2.888-2.362 5.221-5.221 5.221h-38.004c5.192 13.709 9.771 28.263 13.709 43.576z" fill="#dddaec" fill-rule="evenodd"/></g><g><path clip-rule="evenodd" d="m389.121 165.333h44.479v44.451 44.48 44.451h-44.479v-44.451h-10.325v1.721c0 45.209-5.308 88.056-14.817 126.382h102.025c3.733 0 6.796-3.033 6.796-6.767v-242.701c0-3.733-3.063-6.767-6.796-6.767h-102.9c6.65 25.988 11.375 54.105 13.796 83.652h12.221z" fill="#80b4fb" fill-rule="evenodd"/></g><g><path d="m170.517 442.77h-8.72c-4.268 0-7.726-3.459-7.726-7.726s3.459-7.726 7.726-7.726h8.72c4.268 0 7.726 3.459 7.726 7.726s-3.458 7.726-7.726 7.726z" fill="#2b4d66"/></g><g><path d="m285.814 442.77h-78.312c-4.268 0-7.726-3.459-7.726-7.726s3.459-7.726 7.726-7.726h78.312c4.268 0 7.726 3.459 7.726 7.726s-3.459 7.726-7.726 7.726z" fill="#2b4d66"/></g><g><path d="m285.814 480.192h-78.312c-4.268 0-7.726-3.459-7.726-7.726s3.459-7.726 7.726-7.726h78.312c4.268 0 7.726 3.459 7.726 7.726s-3.459 7.726-7.726 7.726zm-115.297 0h-8.72c-4.268 0-7.726-3.459-7.726-7.726s3.459-7.726 7.726-7.726h8.72c4.268 0 7.726 3.459 7.726 7.726.001 4.267-3.458 7.726-7.726 7.726z" fill="#2b4d66"/></g><g><path d="m472.801 442.77h-78.312c-4.268 0-7.726-3.459-7.726-7.726s3.459-7.726 7.726-7.726h78.312c4.268 0 7.726 3.459 7.726 7.726s-3.459 7.726-7.726 7.726zm-115.297 0h-8.72c-4.268 0-7.726-3.459-7.726-7.726s3.459-7.726 7.726-7.726h8.72c4.268 0 7.726 3.459 7.726 7.726s-3.458 7.726-7.726 7.726z" fill="#2b4d66"/></g><g><path d="m472.801 480.192h-78.312c-4.268 0-7.726-3.459-7.726-7.726s3.459-7.726 7.726-7.726h78.312c4.268 0 7.726 3.459 7.726 7.726s-3.459 7.726-7.726 7.726zm-115.297 0h-8.72c-4.268 0-7.726-3.459-7.726-7.726s3.459-7.726 7.726-7.726h8.72c4.268 0 7.726 3.459 7.726 7.726.001 4.267-3.458 7.726-7.726 7.726z" fill="#2b4d66"/></g><path d="m433.6 157.607h-44.479c-4.268 0-7.726 3.459-7.726 7.726v36.725h-28.997v-36.725c0-4.267-3.459-7.726-7.726-7.726h-44.45c-4.268 0-7.726 3.459-7.726 7.726v36.725h-81.203c-4.268 0-7.726 3.459-7.726 7.726v133.382c0 4.267 3.459 7.726 7.726 7.726h44.45c4.268 0 7.726-3.459 7.726-7.726v-81.176h29.026v36.725c0 4.267 3.459 7.726 7.726 7.726h44.45c4.268 0 7.726-3.459 7.726-7.726v-36.725h28.997v36.725c0 4.267 3.459 7.726 7.726 7.726h44.48c4.268 0 7.726-3.459 7.726-7.726v-133.382c.001-4.267-3.458-7.726-7.726-7.726zm-185.584 177.833h-28.997v-28.998h28.997zm0-44.451h-28.997v-28.998h28.997zm0-44.451h-28.997v-29.027h28.997zm44.479 0h-29.026v-29.027h29.026zm44.45 44.451h-28.997v-28.998h28.997zm0-44.451h-28.997v-29.027h28.997zm0-44.48h-28.997v-28.999h28.997zm59.902 15.453h29.026v29.027h-29.026zm29.027-44.452v28.999h-29.026v-28.999zm-73.477 73.479v-29.027h28.997v29.027zm44.45 44.451v-28.998h29.026v28.998z" fill="#2b4d66"/><g><path clip-rule="evenodd" d="m37.139 397.826h-36.867c.35 2.042 1.196 3.879 3.15 9.071l.467 1.371 13.708 40.601h39.083l14.175-41.972c1.983-5.192 2.829-7.029 3.179-9.071z" fill="#ffe5c1" fill-rule="evenodd"/></g><g><path clip-rule="evenodd" d="m17.597 448.869 15.604 46.23c1.137 2.975 2.537 4.463 3.908 4.492h.058c1.4-.029 2.8-1.517 3.908-4.492l15.604-46.23z" fill="#375e7d" fill-rule="evenodd"/></g><g><path clip-rule="evenodd" d="m.01 121.436v235.322 31.822c0 5.221-.087 7.321.262 9.246h36.867 36.896c.146-.904.233-1.838.233-3.121v-5.396c0-.233 0-.467 0-.729v-267.144z" fill="#ffe07d" fill-rule="evenodd"/></g><g><path clip-rule="evenodd" d="m.01 82.06h74.258v39.376h-74.258z" fill="#a1d4ff" fill-rule="evenodd"/></g><g><path clip-rule="evenodd" d="m59.16 20.138h-22.021-8.225-13.796c-8.312 0-15.108 6.796-15.108 15.109v46.813h74.258v-46.813c0-8.313-6.796-15.109-15.108-15.109z" fill="#eb5468" fill-rule="evenodd"/></g><g><path clip-rule="evenodd" d="m46.355 121.436v267.144.729 5.396c0 1.283-.088 2.217-.233 3.121h27.912c.146-.904.233-1.838.233-3.121v-5.396-.729-267.144z" fill="#ffd064" fill-rule="evenodd"/></g><g><path clip-rule="evenodd" d="m46.355 82.06h27.912v39.376h-27.912z" fill="#80b4fb" fill-rule="evenodd"/></g><g><path clip-rule="evenodd" d="m59.16 20.138h-22.021-5.892c8.312 0 15.108 6.796 15.108 15.109v46.813h27.912v-46.813c.001-8.313-6.795-15.109-15.107-15.109z" fill="#e5384f" fill-rule="evenodd"/></g><g><path clip-rule="evenodd" d="m74.035 397.826h-27.913c-.35 2.042-1.225 3.879-3.179 9.071l-14.175 41.972h27.912l14.175-41.972c1.984-5.191 2.83-7.029 3.18-9.071z" fill="#fed1a3" fill-rule="evenodd"/></g><g><path clip-rule="evenodd" d="m56.68 448.869h-27.912l-5.571 16.538 10.004 29.693c1.137 2.975 2.537 4.463 3.908 4.492h.058c1.4-.029 2.8-1.517 3.908-4.492z" fill="#2b4d66" fill-rule="evenodd"/></g></g></svg>