<svg id="Filled-Outline" height="512" viewBox="0 0 512 512" width="512" xmlns="http://www.w3.org/2000/svg"><g id="Mechanic-technician"><path d="m285.09 328-25.87 56.92-3.22 7.08-3.22-7.08-25.87-56.92z" fill="#e4ebf0"/><path d="m226.91 328 25.87 56.92-52.78 15.08v-96h16z" fill="#0e7dde"/><path d="m312 304v96l-52.78-15.08 25.87-56.92 10.91-24z" fill="#0e7dde"/><path d="m344 136v8c-40 0-64-16-88-16s-48 16-88 16v-40h176z" fill="#0e7dde"/><path d="m344 72v32h-176v-32a48 48 0 0 1 48-48h80a48 48 0 0 1 48 48z" fill="#3896d2"/><path d="m344 80v24h-176v-32a48.036 48.036 0 0 1 37.81-46.92 47.876 47.876 0 0 0 -5.81 22.92v32z" fill="#0e7dde"/><path d="m128 488h-72v-56a128 128 0 0 1 128-128h16v96l52.78-15.08 3.22 7.08v96z" fill="#3896d2"/><path d="m256 464v24h-200v-56a128.054 128.054 0 0 1 96.08-123.99 127.762 127.762 0 0 0 -48.08 99.99v56z" fill="#0e7dde"/><path d="m384 488h-128v-96l3.22-7.08 52.78 15.08v-96h16a128 128 0 0 1 128 128v56z" fill="#3896d2"/><path d="m344 376-32-9.14v-62.86h16a129.931 129.931 0 0 1 16 .99z" fill="#0e7dde"/><path d="m456 464v24h-200v-96l3.22-7.08 28.78 8.22v70.86z" fill="#0e7dde"/><path d="m168 184h-8a16 16 0 0 1 -16-16v-16a16 16 0 0 1 16-16h8z" fill="#ffcd7f"/><path d="m368 152v16a16 16 0 0 1 -16 16h-8v-48h8a16 16 0 0 1 16 16z" fill="#ffcd7f"/><path d="m296 270.4v33.6l-10.91 24h-58.18l-10.91-24v-33.6a88.133 88.133 0 0 0 80 0z" fill="#ffcd7f"/><path d="m344 184v8a88 88 0 1 1 -176 0v-48c40 0 64-16 88-16s48 16 88 16z" fill="#ffd7a0"/><path d="m323.37 248.61a87.99 87.99 0 0 1 -155.37-56.61v-48a153.63 153.63 0 0 0 32-3.43v27.43a88.059 88.059 0 0 0 123.37 80.61z" fill="#ffcd7f"/><path d="m464 24.34a40 40 0 0 1 0 73.32v109.02a40 40 0 0 1 0 73.32v-28.66a16 16 0 0 0 -32 0v28.66a40 40 0 0 1 0-73.32v-109.02a40 40 0 0 1 0-73.32v28.66a16 16 0 0 0 32 0z" fill="#808285"/><path d="m448 97.66v109.02a39.989 39.989 0 0 0 -16 60.65v12.67a40 40 0 0 1 0-73.32v-109.02a40 40 0 0 1 0-73.32v12.67a39.989 39.989 0 0 0 16 60.65z" fill="#414042"/><path d="m480 37.01v15.99a16 16 0 0 1 -24 13.86 15.994 15.994 0 0 0 8-13.86v-28.66a40.089 40.089 0 0 1 16 12.67z" fill="#414042"/><path d="m480 251.34v15.99a40.089 40.089 0 0 1 -16 12.67v-28.66a15.994 15.994 0 0 0 -8-13.86 16 16 0 0 1 24 13.86z" fill="#414042"/><path d="m88 208v72h-64v-72l16-16-16-16v-24h32 32v24l-16 16z" fill="#abbd3f"/><path d="m88 248v32h-64v-72l16-16-16-16v-24h40l8 8-16 16v72z" fill="#98b006"/><path d="m72 24v40l-16 16-16-16v-40z" fill="#e4ebf0"/><path d="m64 72-8 8-16-16v-40h16v40z" fill="#b4d7f0"/><g fill="#062d42"><path d="m243.578 239.155 12.422-6.211 12.422 6.211 7.156-14.31-16-8a8 8 0 0 0 -7.156 0l-16 8z"/><path d="m288 176a8.009 8.009 0 0 1 8 8h16a24 24 0 0 0 -48 0h16a8.009 8.009 0 0 1 8-8z"/><path d="m231.03 183.34h16a23.03 23.03 0 1 0 -46.06 0h16a7.03 7.03 0 1 1 14.06 0z"/><path d="m224 64h64v16h-64z"/><path d="m328 296h-24v-20.862a95.6 95.6 0 0 0 48-83.138 24.027 24.027 0 0 0 24-24v-16a24.027 24.027 0 0 0 -24-24v-56a56.064 56.064 0 0 0 -56-56h-80a56.064 56.064 0 0 0 -56 56v56a24.027 24.027 0 0 0 -24 24v16a24.027 24.027 0 0 0 24 24 95.6 95.6 0 0 0 48 83.138v20.862h-24c-74.991 0-136 61.009-136 136v56a8 8 0 0 0 8 8h400a8 8 0 0 0 8-8v-56c0-74.991-61.009-136-136-136zm-120 16h2.849l30.808 67.778-33.657 9.616zm16-29.49a96.005 96.005 0 0 0 64 0v19.757l-8.06 17.733h-47.88l-8.06-17.733zm32 90.16-16.668-36.67h33.336zm45.151-60.67h2.849v77.394l-33.657-9.616zm-125.151-200h160v23.769c-17.667-1.014-32.09-5.207-45.007-8.966-12.022-3.503-23.377-6.803-34.993-6.803s-22.971 3.3-34.993 6.8c-12.917 3.759-27.34 7.952-45.007 8.966zm184 40v16a8.009 8.009 0 0 1 -8 8v-32a8.009 8.009 0 0 1 8 8zm-144-120h80a40.045 40.045 0 0 1 40 40v24h-160v-24a40.045 40.045 0 0 1 40-40zm-56 144a8.009 8.009 0 0 1 -8-8v-16a8.009 8.009 0 0 1 8-8zm16 16v-40.208c19.806-1 35.472-5.551 49.477-9.626 11.369-3.309 21.188-6.166 30.523-6.166s19.154 2.857 30.523 6.166c14 4.075 29.671 8.625 49.477 9.626v40.208a80 80 0 1 1 -160 0zm-112 240a120.136 120.136 0 0 1 120-120h8v88a8 8 0 0 0 10.2 7.692l45.8-13.086v85.394h-112v-64h-16v64h-56zm384 48h-56v-64h-16v64h-112v-85.394l45.8 13.086a8 8 0 0 0 10.2-7.692v-88h8a120.136 120.136 0 0 1 120 120z"/><path d="m288 432h64v16h-64z"/><path d="m472 201.772v-99.2a48 48 0 0 0 -4.8-85.56 8 8 0 0 0 -11.2 7.328v28.66a8 8 0 0 1 -16 0v-28.66a8 8 0 0 0 -11.2-7.332 48 48 0 0 0 -4.8 85.56v99.2a48 48 0 0 0 4.8 85.56 8 8 0 0 0 11.2-7.328v-28.66a8 8 0 0 1 16 0v28.66a8 8 0 0 0 11.2 7.332 48 48 0 0 0 4.8-85.56zm0 62.733v-13.165a24 24 0 0 0 -48 0v13.165a32 32 0 0 1 11.2-50.494 8 8 0 0 0 4.8-7.331v-109.02a8 8 0 0 0 -4.8-7.33 32 32 0 0 1 -11.2-50.5v13.17a24 24 0 0 0 48 0v-13.166a32 32 0 0 1 -11.2 50.5 8 8 0 0 0 -4.8 7.33v109.016a8 8 0 0 0 4.8 7.331 32 32 0 0 1 11.2 50.494z"/><path d="m96 280v-72a8 8 0 0 0 -2.343-5.657l-10.344-10.343 10.344-10.343a8 8 0 0 0 2.343-5.657v-24a8 8 0 0 0 -8-8h-24v-60.687l13.657-13.656a8 8 0 0 0 2.343-5.657v-40a8 8 0 0 0 -8-8h-32a8 8 0 0 0 -8 8v40a8 8 0 0 0 2.343 5.657l13.657 13.656v60.687h-24a8 8 0 0 0 -8 8v24a8 8 0 0 0 2.343 5.657l10.344 10.343-10.344 10.343a8 8 0 0 0 -2.343 5.657v72a8 8 0 0 0 8 8h64a8 8 0 0 0 8-8zm-48-248h16v28.687l-8 8-8-8zm32 140.687-13.657 13.656a8 8 0 0 0 0 11.314l13.657 13.656v60.687h-48v-60.687l13.657-13.656a8 8 0 0 0 0-11.314l-13.657-13.656v-12.687h48z"/></g></g></svg>