<svg height="512" viewBox="0 0 64 64" width="512" xmlns="http://www.w3.org/2000/svg"><g id="Layer_31" data-name="Layer 31"><path d="m55 53v10h-46v-10a12 12 0 0 1 12-12h8a3 3 0 0 0 6 0h8a12 12 0 0 1 12 12z" fill="#a7d0e1"/><path d="m53 61v-2a2 2 0 0 0 -2-2h-1v-13.735a11.932 11.932 0 0 0 -4-1.872v15.607h-1a2 2 0 0 0 -2 2v2a2 2 0 0 0 2 2h1v-1a2 2 0 0 1 4 0v1h1a2 2 0 0 0 2-2z" fill="#80bbce"/><path d="m22 60a10 10 0 0 1 -10-10 11.937 11.937 0 0 1 2.152-6.848 11.976 11.976 0 0 0 -5.152 9.848v10h46v-3z" fill="#80bbce"/><path d="m17 59h8v4h-8z" fill="#7a838b"/><path d="m22 60a9.944 9.944 0 0 1 -4.337-1h-.663v4h8v-3z" fill="#5d6972"/><path d="m39 59h8v4h-8z" fill="#7a838b" transform="matrix(-1 0 0 -1 86 122)"/><path d="m43 59v1h-4v3h8v-4z" fill="#5d6972"/><path d="m25 37h14v4h-14z" fill="#80bbce"/><path d="m20 15h1a0 0 0 0 1 0 0v6a0 0 0 0 1 0 0h-1a3 3 0 0 1 -3-3 3 3 0 0 1 3-3z" fill="#f9b995"/><path d="m46 15h1a0 0 0 0 1 0 0v6a0 0 0 0 1 0 0h-1a3 3 0 0 1 -3-3 3 3 0 0 1 3-3z" fill="#f9b995" transform="matrix(-1 0 0 -1 90 36)"/><path d="m28 41 4 21 4-21z" fill="#e6e6e6"/><path d="m29 33v8a3 3 0 0 0 6 0v-8z" fill="#ffd3b6"/><path d="m29 36.575a10.8 10.8 0 0 0 6 0v-3.575h-6z" fill="#f9b995"/><path d="m21 13h22a0 0 0 0 1 0 0v11a11 11 0 0 1 -11 11 11 11 0 0 1 -11-11v-11a0 0 0 0 1 0 0z" fill="#ffd3b6"/><path d="m25 37-3 4 1 6 5-6z" fill="#80bbce"/><path d="m39 37 3 4-1 6-5-6z" fill="#80bbce"/><path d="m32 1a11 11 0 0 1 11 11v3a0 0 0 0 1 0 0h-22a0 0 0 0 1 0 0v-3a11 11 0 0 1 11-11z" fill="#a7d0e1"/><path d="m43 19v-4.914a56.716 56.716 0 0 0 -19-.5v-.586h-3v10.652a11.229 11.229 0 0 0 10.6 11.341 10.987 10.987 0 0 0 9.532-4.861 10.973 10.973 0 0 1 -7.283 1.809 11.172 11.172 0 0 1 -9.849-11.206v-1.089a2.017 2.017 0 0 1 1.613-1.967 31.116 31.116 0 0 1 17.387 1.321z" fill="#f9b995"/><path d="m42.818 10.053a56.668 56.668 0 0 0 -15.251-.853 2 2 0 0 1 -1.858-3.063 10.989 10.989 0 0 1 7.791-5.023 10.913 10.913 0 0 0 -12.45 9.886c-.032.328-.05.66-.05 1v3h3v-.938a31.111 31.111 0 0 1 19 .938v-3a11.049 11.049 0 0 0 -.182-1.947z" fill="#80bbce"/><path d="m43.468 12.169a56.824 56.824 0 0 0 -22.936 0 2 2 0 0 0 -.991 3.372l1.459 1.459a31.246 31.246 0 0 1 22 0l1.459-1.459a2 2 0 0 0 -.991-3.372z" fill="#a7d0e1"/><path d="m22.541 15.541a2 2 0 0 1 .991-3.372 57.526 57.526 0 0 1 9.968-1.131 57.109 57.109 0 0 0 -12.968 1.131 2 2 0 0 0 -.991 3.372l1.459 1.459c.756-.275 1.512-.514 2.268-.732z" fill="#80bbce"/><circle cx="32" cy="6" fill="#7a838b" r="2"/><path d="m53 39a2 2 0 0 0 2-2v-2a2 2 0 0 0 -2-2h-1v1a2 2 0 0 1 -4 0v-1h-1a2 2 0 0 0 -2 2v2a2 2 0 0 0 2 2h1v18h-1a2 2 0 0 0 -2 2v2a2 2 0 0 0 2 2h1v-1a2 2 0 0 1 4 0v1h1a2 2 0 0 0 2-2v-2a2 2 0 0 0 -2-2h-1v-18z" fill="#e6e6e6"/><path d="m27 19a1 1 0 0 0 -1 1v1a1 1 0 0 0 2 0v-1a1 1 0 0 0 -1-1z" fill="#7a838b"/><path d="m37 22a1 1 0 0 0 1-1v-1a1 1 0 0 0 -2 0v1a1 1 0 0 0 1 1z" fill="#7a838b"/><path d="m39 7.35a1 1 0 0 1 -.778-.372 8.019 8.019 0 0 0 -1.779-1.626 1 1 0 0 1 1.114-1.663 10.031 10.031 0 0 1 2.221 2.033 1 1 0 0 1 -.778 1.628z" fill="#fff"/></g></svg>