<svg height="512" viewBox="0 0 60 51" width="512" xmlns="http://www.w3.org/2000/svg"><g id="Page-1" fill="none" fill-rule="evenodd"><g id="022---Warning" transform="translate(0 -1)"><path id="Path" d="m30 52h-25.045c-1.42929459-.0020111-2.74890713-.7665116-3.46161019-2.0054391-.71270307-1.2389275-.71018317-2.7639954.00661019-4.0005609l25.043-43.007c.7163635-1.23069609 2.0329953-1.98774977 3.457-1.98774977s2.7406365.75705368 3.457 1.98774977l25.043 43.007c.7167934 1.2365655.7193133 2.7616334.0066102 4.0005609s-2.0323156 2.003428-3.4616102 2.0054391z" fill="#f29c1f"/><path id="Path" d="m4.955 48 25.044-43 25.043 43z" fill="#f0c419"/><g fill="#393f4a"><circle id="Oval" cx="30" cy="41" r="3"/><path id="Path" d="m33 19c0 1.657-1.343 15-3 15s-3-13.343-3-15c0-1.6568542 1.3431458-3 3-3s3 1.3431458 3 3z"/></g></g></g></svg>